<svg width="15" height="14" viewBox="0 0 15 14" fill="none" xmlns="http://www.w3.org/2000/svg">
<path d="M5 14C5.55228 14 6 13.5523 6 13C6 12.4478 5.55228 12 5 12C4.44772 12 4 12.4478 4 13C4 13.5523 4.44772 14 5 14Z" fill="#2A254B"/>
<path d="M12 14C12.5523 14 13 13.5523 13 13C13 12.4478 12.5523 12 12 12C11.4477 12 11 12.4478 11 13C11 13.5523 11.4477 14 12 14Z" fill="#2A254B"/>
<path d="M14 2.50004H2.91L2.5 0.400041C2.47662 0.285403 2.41379 0.182592 2.32243 0.109505C2.23107 0.0364172 2.11697 -0.00231828 2 4.06843e-05H0V1.00004H1.59L3.5 10.6C3.52338 10.7147 3.58621 10.8175 3.67757 10.8906C3.76893 10.9637 3.88303 11.0024 4 11H13V10H4.41L4 8.00004H13C13.1156 8.00287 13.2286 7.96555 13.3197 7.89444C13.4109 7.82333 13.4746 7.72283 13.5 7.61004L14.5 3.11004C14.5168 3.03585 14.5164 2.95882 14.4989 2.88481C14.4814 2.81079 14.4472 2.74175 14.399 2.68293C14.3508 2.6241 14.2898 2.57706 14.2206 2.54537C14.1515 2.51367 14.076 2.49817 14 2.50004ZM12.6 7.00004H3.81L3.11 3.50004H13.375L12.6 7.00004Z" fill="#2A254B"/>
</svg>
